<svg width="120" height="80" viewBox="0 0 120 80" xmlns="http://www.w3.org/2000/svg">
  <defs>
    <linearGradient id="animalGrad" x1="0%" y1="0%" x2="100%" y2="100%">
      <stop offset="0%" style="stop-color:rgba(34, 197, 94, 0.1);stop-opacity:1" />
      <stop offset="100%" style="stop-color:rgba(6, 182, 212, 0.1);stop-opacity:1" />
    </linearGradient>
  </defs>
  
  <!-- Simple cow silhouette -->
  <path d="M15,35 Q10,30 12,25 Q15,20 20,22 Q25,18 30,20 Q35,15 45,20 Q55,15 65,20 Q75,18 80,22 Q85,20 88,25 Q90,30 85,35 L85,45 Q88,50 85,55 L85,60 L75,60 L75,70 L70,70 L70,60 L50,60 L50,70 L45,70 L45,60 L35,60 L35,70 L30,70 L30,60 L20,60 L20,70 L15,70 L15,60 L10,60 Q7,55 10,50 L10,45 Z" 
        fill="url(#animalGrad)" 
        opacity="0.6"/>
  
  <!-- Ears -->
  <ellipse cx="25" cy="25" rx="3" ry="8" fill="rgba(34, 197, 94, 0.1)" opacity="0.4"/>
  <ellipse cx="75" cy="25" rx="3" ry="8" fill="rgba(34, 197, 94, 0.1)" opacity="0.4"/>
</svg> 