<svg width="400" height="400" viewBox="0 0 400 400" xmlns="http://www.w3.org/2000/svg">
  <defs>
    <linearGradient id="techGrad1" x1="0%" y1="0%" x2="100%" y2="100%">
      <stop offset="0%" style="stop-color:rgba(34, 197, 94, 0.1);stop-opacity:1" />
      <stop offset="100%" style="stop-color:rgba(21, 128, 61, 0.05);stop-opacity:1" />
    </linearGradient>
    <linearGradient id="techGrad2" x1="0%" y1="0%" x2="100%" y2="100%">
      <stop offset="0%" style="stop-color:rgba(6, 182, 212, 0.1);stop-opacity:1" />
      <stop offset="100%" style="stop-color:rgba(132, 204, 22, 0.05);stop-opacity:1" />
    </linearGradient>
  </defs>
  
  <!-- Circuit-like lines -->
  <path d="M50,50 L150,50 L150,100 L250,100 L250,150 L350,150" 
        stroke="rgba(34, 197, 94, 0.2)" stroke-width="2" fill="none"/>
  <path d="M100,200 L200,200 L200,250 L300,250 L300,300 L350,300" 
        stroke="rgba(21, 128, 61, 0.2)" stroke-width="2" fill="none"/>
  <path d="M50,350 L100,350 L100,300 L200,300 L200,200" 
        stroke="rgba(6, 182, 212, 0.2)" stroke-width="2" fill="none"/>
  
  <!-- Circuit nodes -->
  <circle cx="150" cy="50" r="4" fill="url(#techGrad1)"/>
  <circle cx="150" cy="100" r="4" fill="url(#techGrad1)"/>
  <circle cx="250" cy="100" r="4" fill="url(#techGrad1)"/>
  <circle cx="250" cy="150" r="4" fill="url(#techGrad1)"/>
  
  <circle cx="200" cy="200" r="4" fill="url(#techGrad2)"/>
  <circle cx="200" cy="250" r="4" fill="url(#techGrad2)"/>
  <circle cx="300" cy="250" r="4" fill="url(#techGrad2)"/>
  <circle cx="300" cy="300" r="4" fill="url(#techGrad2)"/>
  
  <!-- Geometric shapes for tech feel -->
  <polygon points="80,120 100,100 120,120 100,140" fill="rgba(34, 197, 94, 0.1)" opacity="0.6"/>
  <polygon points="280,180 300,160 320,180 300,200" fill="rgba(21, 128, 61, 0.1)" opacity="0.6"/>
  
  <!-- Glowing orbs -->
  <circle cx="70" cy="270" r="12" fill="url(#techGrad1)" opacity="0.4"/>
  <circle cx="330" cy="80" r="10" fill="url(#techGrad2)" opacity="0.5"/>
  <circle cx="180" cy="350" r="8" fill="rgba(132, 204, 22, 0.2)" opacity="0.6"/>
  
  <!-- Abstract data visualization elements -->
  <rect x="120" y="180" width="6" height="40" fill="rgba(34, 197, 94, 0.2)" opacity="0.3"/>
  <rect x="130" y="190" width="6" height="30" fill="rgba(34, 197, 94, 0.2)" opacity="0.4"/>
  <rect x="140" y="170" width="6" height="50" fill="rgba(34, 197, 94, 0.2)" opacity="0.5"/>
  
  <!-- Neural network inspired connections -->
  <path d="M70,70 Q150,120 230,70" stroke="rgba(21, 128, 61, 0.15)" stroke-width="1.5" fill="none"/>
  <path d="M320,120 Q250,170 180,120" stroke="rgba(6, 182, 212, 0.15)" stroke-width="1.5" fill="none"/>
</svg> 